<svg width="52" height="71" viewBox="0 0 52 71" fill="none" xmlns="http://www.w3.org/2000/svg">
<path fill-rule="evenodd" clip-rule="evenodd" d="M39.2477 36.2858C39.4508 36.1125 39.7605 36.1831 39.8669 36.4286C39.934 36.5847 39.892 36.7706 39.7623 36.8813C39.5598 37.0572 39.3532 37.2276 39.1443 37.3959C38.8492 37.63 38.4226 37.3498 38.5201 36.9858C38.5422 36.903 38.5891 36.8317 38.6563 36.7785C38.856 36.6173 39.0539 36.4541 39.2477 36.2858ZM41.4191 34.0925C41.6761 33.7958 42.1608 34.0138 42.1073 34.4056C42.0961 34.4793 42.0657 34.5481 42.0166 34.6047C41.8432 34.8082 41.6672 35.0087 41.4864 35.2057C41.3718 35.3291 41.1938 35.3667 41.0393 35.2993C40.7924 35.1916 40.7249 34.8693 40.9082 34.6718C41.0823 34.4817 41.2519 34.2888 41.4191 34.0925ZM43.228 31.5934C43.3033 31.4707 43.438 31.4025 43.5807 31.4078C43.8816 31.424 44.054 31.7521 43.8966 32.0086C43.7562 32.2361 43.6131 32.4612 43.4646 32.6836C43.3757 32.816 43.2143 32.8821 43.0581 32.8494C42.7846 32.7917 42.6556 32.4764 42.8117 32.2443C42.9548 32.0297 43.0926 31.8129 43.228 31.5934ZM44.6341 28.8488C44.7855 28.4944 45.302 28.5431 45.3828 28.9259C45.3972 29.0039 45.3906 29.0813 45.3592 29.1547C45.2558 29.4016 45.1472 29.647 45.0342 29.8896C44.9801 30.0033 44.8723 30.0883 44.7474 30.1091C44.4334 30.1651 44.1858 29.841 44.3225 29.5537C44.4314 29.3218 44.535 29.0851 44.6341 28.8488ZM45.6089 25.9202C45.7009 25.5577 46.2033 25.5174 46.352 25.8629C46.3863 25.9424 46.3928 26.0308 46.3715 26.1147C46.3062 26.3741 46.2364 26.6311 46.162 26.888C46.0554 27.2486 45.5509 27.2685 45.4164 26.9165C45.386 26.8318 45.3825 26.7532 45.4069 26.6662C45.4788 26.4185 45.5458 26.1704 45.6089 25.9202ZM46.1292 22.88C46.1408 22.7568 46.2104 22.6449 46.3163 22.581C46.5937 22.4135 46.9431 22.6326 46.9126 22.9543C46.8881 23.2205 46.8577 23.4878 46.8223 23.7528C46.7814 24.0326 46.4756 24.181 46.2314 24.0377C46.0947 23.9557 46.0218 23.8038 46.0426 23.6456C46.0771 23.392 46.1057 23.1349 46.1292 22.88ZM46.182 19.7942C46.1757 19.6728 46.2236 19.557 46.315 19.4767C46.5612 19.2603 46.9509 19.424 46.9678 19.7501C46.9837 20.017 46.9938 20.2835 47 20.5509C47.0046 20.9585 46.4686 21.1068 46.2631 20.751C46.2308 20.6925 46.215 20.6332 46.2131 20.5664C46.2072 20.3087 46.1974 20.0516 46.182 19.7942ZM45.7634 16.738C45.7349 16.6032 45.7777 16.4659 45.8768 16.3709C46.0999 16.1593 46.4699 16.2738 46.5331 16.5739C46.5897 16.8354 46.6408 17.0973 46.6875 17.3608C46.7455 17.7054 46.3638 17.9494 46.0754 17.7516C45.9891 17.6901 45.9299 17.6012 45.9121 17.4959C45.8671 17.2422 45.8179 16.9898 45.7634 16.738ZM44.8818 13.7826C44.8298 13.6437 44.8566 13.4942 44.9535 13.3822C45.151 13.1595 45.5074 13.2247 45.6167 13.5012C45.7133 13.7503 45.803 14.0025 45.8899 14.2551C45.9185 14.341 45.9176 14.424 45.8894 14.5099C45.7621 14.8642 45.2703 14.8629 45.1448 14.5087C45.0613 14.2654 44.9748 14.0225 44.8818 13.7826ZM43.5597 10.9944C43.441 10.7799 43.5353 10.5201 43.7638 10.4312C43.9466 10.364 44.1463 10.4364 44.2437 10.6052L44.3215 10.7426C44.426 10.9306 44.5281 11.1187 44.6278 11.3092C44.8121 11.6729 44.3988 12.0416 44.0581 11.8168C44.0023 11.7784 43.9612 11.732 43.9295 11.6722C43.8103 11.4444 43.6877 11.2174 43.5597 10.9944ZM41.8337 8.43668C41.5996 8.14164 41.8798 7.71484 42.2437 7.81235C42.3265 7.8346 42.3978 7.88141 42.451 7.94858C42.6172 8.15812 42.7782 8.37121 42.9366 8.58671C43.1536 8.8818 42.8794 9.29073 42.5216 9.20024C42.4311 9.17599 42.3571 9.127 42.3013 9.05121C42.1486 8.84376 41.9937 8.63853 41.8337 8.43668ZM39.7381 6.17107C39.4693 5.92129 39.6644 5.46714 40.0314 5.49084C40.1238 5.49686 40.2079 5.53323 40.2756 5.59619C40.4715 5.77833 40.6639 5.96324 40.8529 6.15254C40.9554 6.25573 40.9904 6.40172 40.9511 6.54097C40.8656 6.82789 40.5049 6.91904 40.2943 6.70687C40.1122 6.52458 39.9267 6.34655 39.7381 6.17107ZM37.3213 4.2544C37.0619 4.08002 37.1046 3.68283 37.395 3.56442C37.5213 3.51615 37.6515 3.52796 37.7645 3.60389C37.986 3.75399 38.204 3.90718 38.4199 4.06507C38.5533 4.16282 38.6125 4.33867 38.563 4.49681C38.482 4.75638 38.1728 4.85975 37.9532 4.69876C37.7452 4.54647 37.5347 4.39898 37.3213 4.2544ZM34.6413 2.72986C34.5276 2.67575 34.4427 2.56782 34.4219 2.44294C34.3658 2.12894 34.6899 1.88136 34.9772 2.018C35.2193 2.13323 35.4595 2.25088 35.6973 2.3749C35.8194 2.43921 35.9016 2.56523 35.9074 2.70381C35.923 3.00719 35.6001 3.2133 35.3316 3.07192C35.1036 2.95315 34.8734 2.84035 34.6413 2.72986ZM31.758 1.62888C31.4234 1.52511 31.3769 1.07522 31.6827 0.906578C31.7783 0.856221 31.8802 0.844274 31.9844 0.875036C32.2407 0.9512 32.4943 1.03248 32.7478 1.1177C32.8601 1.15576 32.9507 1.24382 32.9909 1.35545C33.1029 1.66667 32.8069 1.96883 32.4947 1.86295C32.2502 1.78068 32.0054 1.70241 31.758 1.62888ZM28.7414 0.976882C28.3568 0.920525 28.2772 0.399382 28.6302 0.230966C28.7017 0.198699 28.775 0.186327 28.8531 0.197779C29.1178 0.234913 29.3813 0.275446 29.6445 0.322298C29.9876 0.381647 30.0855 0.835388 29.7992 1.03283C29.7114 1.09314 29.6099 1.1151 29.5049 1.09687C29.251 1.05172 28.9968 1.01278 28.7414 0.976882ZM25.6637 0.789916C25.4926 0.791828 25.341 0.685079 25.2856 0.523265C25.1992 0.271127 25.3866 0.005892 25.6527 0.00295379C25.9199 -0.00171903 26.1892 -0.000887437 26.4563 0.00573239C26.6251 0.010653 26.7739 0.123562 26.8221 0.285872C26.8993 0.542434 26.7014 0.800413 26.434 0.792536C26.1772 0.787315 25.9204 0.785385 25.6637 0.789916ZM22.5919 1.07441C22.4605 1.09657 22.3263 1.0503 22.2366 0.952067C22.0262 0.721842 22.1545 0.349875 22.4615 0.298138C22.725 0.252879 22.989 0.213744 23.2539 0.178362C23.6309 0.130625 23.8513 0.590118 23.5739 0.855796C23.5111 0.913144 23.4402 0.947606 23.3557 0.958899C23.1003 0.993042 22.8459 1.03074 22.5919 1.07441ZM19.6009 1.82565C19.4933 1.86162 19.3756 1.84923 19.2777 1.79188C18.9865 1.62104 19.0322 1.18587 19.3521 1.07892C19.6055 0.993609 19.8607 0.914844 20.1171 0.839087C20.4876 0.731294 20.7768 1.1684 20.5301 1.46845C20.4806 1.52858 20.4125 1.57288 20.3378 1.59461C20.0909 1.66754 19.8449 1.74347 19.6009 1.82565ZM16.7584 3.02589C16.4395 3.18762 16.0884 2.8778 16.2102 2.53888C16.2468 2.44521 16.3095 2.37105 16.4 2.32511C16.6375 2.20263 16.8777 2.08496 17.1198 1.97164C17.2761 1.89939 17.4613 1.93621 17.577 2.06406C17.7547 2.26023 17.6918 2.57431 17.4514 2.68545C17.2184 2.79468 16.9872 2.90789 16.7584 3.02589ZM14.1292 4.64046C13.9866 4.7414 13.8033 4.73963 13.6627 4.63603C13.4503 4.47372 13.4538 4.16031 13.6688 4.00207C13.8853 3.84512 14.1053 3.69344 14.3274 3.54449C14.6628 3.32566 15.0709 3.68241 14.8996 4.04381C14.8678 4.10886 14.8231 4.1593 14.7632 4.19992C14.5493 4.34319 14.3376 4.48937 14.1292 4.64046ZM11.7746 6.63503C11.6802 6.72551 11.5559 6.76424 11.4271 6.741C11.1134 6.68011 10.9973 6.29779 11.2237 6.073C11.4141 5.8852 11.6074 5.70115 11.8047 5.52052C12.1099 5.25033 12.5687 5.55279 12.4418 5.93931C12.4182 6.00494 12.3855 6.05546 12.3342 6.10286C12.1441 6.27672 11.958 6.45417 11.7746 6.63503ZM9.75414 8.9656C9.53301 9.25676 9.07456 9.1222 9.04615 8.75634C9.04114 8.65912 9.06544 8.57389 9.12331 8.49495C9.28268 8.28004 9.44563 8.06905 9.61259 7.86001C9.68467 7.76978 9.79252 7.71735 9.90757 7.71351C10.2439 7.70531 10.4352 8.09105 10.2257 8.35363C10.0646 8.55492 9.90766 8.75845 9.75414 8.9656ZM8.1133 11.5787C8.05163 11.6934 7.94486 11.7661 7.81625 11.7841C7.49871 11.8229 7.26961 11.492 7.41868 11.2088C7.54359 10.9724 7.67188 10.7388 7.80523 10.507C7.99075 10.1938 8.45888 10.2723 8.53179 10.6284C8.54944 10.7238 8.53512 10.8173 8.48613 10.9017C8.35753 11.1254 8.23388 11.3506 8.1133 11.5787ZM6.88962 14.4096C6.85231 14.5196 6.76844 14.6038 6.66153 14.6471C6.34648 14.7676 6.03796 14.4707 6.14588 14.152C6.23269 13.8993 6.32498 13.6463 6.42223 13.3975C6.48544 13.2384 6.6438 13.1371 6.81484 13.1489C7.07974 13.1675 7.25264 13.4386 7.15441 13.686C7.06183 13.9255 6.97306 14.1666 6.88962 14.4096ZM6.10759 17.3956C6.03166 17.7763 5.52056 17.8347 5.36061 17.4822C5.32793 17.4062 5.31991 17.3329 5.33394 17.2514C5.38212 16.9885 5.43487 16.7272 5.49257 16.4662C5.52083 16.3415 5.60491 16.2406 5.72214 16.1901C6.01595 16.0644 6.33116 16.3265 6.26061 16.638C6.20492 16.8898 6.15399 17.142 6.10759 17.3956ZM5.78686 20.4631C5.78202 20.6319 5.66913 20.7807 5.50676 20.8289C5.25027 20.9062 4.99242 20.7082 5.00017 20.4407C5.00695 20.1736 5.02017 19.9046 5.03813 19.638C5.06825 19.2609 5.55343 19.1366 5.76054 19.4511C5.80659 19.5242 5.83009 19.6067 5.82315 19.6934C5.80567 19.9488 5.79332 20.2071 5.78686 20.4631ZM5.93661 23.5451C5.9567 23.7034 5.88019 23.8515 5.74482 23.9333C5.49959 24.075 5.19121 23.9229 5.15562 23.642C5.12186 23.3768 5.09475 23.1112 5.07077 22.845C5.05887 22.7168 5.11365 22.5875 5.21346 22.5064C5.46037 22.307 5.82558 22.4612 5.85485 22.7768C5.87786 23.0334 5.90401 23.2895 5.93661 23.5451ZM6.55593 26.5668C6.65566 26.9098 6.27458 27.1989 5.97006 27.0092C5.88647 26.9581 5.82641 26.8765 5.79916 26.7827C5.72515 26.528 5.65319 26.2638 5.59257 26.0057C5.50704 25.6324 5.94197 25.3682 6.23442 25.6181C6.29755 25.674 6.33668 25.7396 6.3576 25.8211C6.41694 26.0695 6.48466 26.3214 6.55593 26.5668ZM7.63094 29.4596C7.69842 29.6062 7.66841 29.7775 7.55821 29.8945C7.36392 30.0954 7.03256 30.0407 6.91526 29.7867C6.80329 29.544 6.69587 29.2992 6.59334 29.0522C6.45598 28.7225 6.80106 28.3927 7.12563 28.5467C7.21382 28.5873 7.28363 28.6628 7.32096 28.7523C7.41976 28.9901 7.52327 29.2258 7.63094 29.4596ZM9.1311 32.156C9.34471 32.4836 9.0009 32.8899 8.64115 32.7311C8.57207 32.6997 8.51465 32.6516 8.47299 32.5877C8.32565 32.3646 8.18305 32.1385 8.04432 31.91C7.8566 31.598 8.1582 31.2192 8.50542 31.3332C8.59572 31.3644 8.66881 31.4213 8.71829 31.5034C8.85201 31.7236 8.98929 31.9411 9.1311 32.156ZM11.0206 34.5957C11.1739 34.769 11.1497 35.0315 10.9654 35.1723C10.8046 35.2958 10.5694 35.2735 10.435 35.1216C10.2558 34.9231 10.0803 34.7218 9.90858 34.5168C9.65935 34.214 9.95339 33.7721 10.3347 33.8913C10.4054 33.9157 10.4658 33.9553 10.5135 34.0132C10.679 34.2108 10.8479 34.4044 11.0206 34.5957ZM13.2597 36.7166C13.5732 36.9757 13.3393 37.4809 12.9378 37.4084C12.8709 37.3952 12.8156 37.3691 12.7623 37.3267C12.5546 37.1583 12.3509 36.9858 12.1497 36.8099C11.8682 36.5574 12.0615 36.0974 12.4383 36.1217C12.5261 36.1289 12.6025 36.1609 12.6691 36.2186C12.8632 36.3881 13.0594 36.5544 13.2597 36.7166ZM15.7979 38.4702C16.0979 38.648 16.037 39.0985 15.6996 39.1898C15.5961 39.2156 15.4915 39.2036 15.399 39.1488C15.1681 39.0138 14.9406 38.8749 14.7147 38.7319C14.4641 38.5693 14.4744 38.2066 14.7334 38.057C14.8614 37.9864 15.014 37.9894 15.1379 38.0683C15.3558 38.2062 15.5751 38.3401 15.7979 38.4702ZM18.5744 39.8168C18.6998 39.8667 18.7832 39.9714 18.8133 40.1017C18.8763 40.4098 18.5736 40.6634 18.2816 40.5475C18.0332 40.4487 17.787 40.3469 17.5422 40.2395C17.3861 40.17 17.2912 40.007 17.3103 39.8368C17.3401 39.5726 17.6175 39.4116 17.861 39.5198C18.0969 39.6236 18.3348 39.7216 18.5744 39.8168ZM21.5212 40.7266C21.8785 40.8076 21.9386 41.2968 21.6088 41.4622C21.5266 41.5035 21.4345 41.514 21.3448 41.4937C21.0841 41.4345 20.8256 41.3697 20.5672 41.3013C20.4142 41.2603 20.2993 41.1302 20.2789 40.9729C20.2428 40.6947 20.4999 40.4683 20.7709 40.541C21.0203 40.6071 21.2696 40.6695 21.5212 40.7266ZM24.5738 41.1804C24.7019 41.1907 24.8147 41.2603 24.8811 41.3702C25.0456 41.6428 24.8307 41.9905 24.5136 41.9652C24.2471 41.9457 23.9814 41.922 23.7158 41.8926C23.3186 41.8448 23.2346 41.3078 23.6016 41.1413C23.6676 41.1129 23.7327 41.103 23.8042 41.1106C24.0606 41.1387 24.3165 41.1616 24.5738 41.1804ZM27.6568 41.1654C28.019 41.1406 28.2207 41.5637 27.9725 41.8301C27.9037 41.9012 27.8186 41.9408 27.7202 41.9499C27.454 41.9722 27.185 41.9889 26.9181 41.9998C26.5176 42.0107 26.3558 41.4958 26.6904 41.2754C26.7529 41.236 26.8145 41.217 26.8881 41.2133C27.1439 41.203 27.4018 41.1867 27.6568 41.1654ZM30.7028 40.6791C31.076 40.5937 31.34 41.0286 31.0902 41.3212C31.0339 41.3847 30.9678 41.4239 30.8855 41.4447C30.6264 41.5076 30.362 41.5659 30.1002 41.6169C29.9353 41.6488 29.7684 41.5726 29.6846 41.4274C29.5495 41.1935 29.6859 40.8952 29.9508 40.8442C30.2011 40.7957 30.4549 40.7393 30.7028 40.6791ZM33.6395 39.7313C33.7548 39.6857 33.8797 39.6942 33.9869 39.7571C34.2679 39.9256 34.2361 40.3353 33.9347 40.4609C33.6873 40.562 33.4382 40.6589 33.187 40.7505C32.8227 40.8796 32.5085 40.467 32.7368 40.1464C32.7854 40.0819 32.8439 40.0386 32.9195 40.0103C33.1614 39.9221 33.401 39.8287 33.6395 39.7313ZM36.1062 38.5199C36.3299 38.3898 36.5501 38.2572 36.7696 38.12C37.0782 37.9266 37.4652 38.229 37.3512 38.5762C37.3217 38.666 37.2645 38.7387 37.1844 38.7889C37.0349 38.8823 36.8851 38.9738 36.734 39.0644C36.5778 39.1564 36.4216 39.2466 36.2639 39.3358L36.1042 39.4242C35.9573 39.502 35.7897 39.4842 35.6616 39.3788C35.4512 39.1967 35.4846 38.8675 35.728 38.7328C35.855 38.6634 35.9807 38.5919 36.1062 38.5199Z" fill="white"/>
<path fill-rule="evenodd" clip-rule="evenodd" d="M22.373 14.7861C22.373 14.7861 21.9016 13.6927 21.6126 13.115C21.3238 12.5374 21.4616 11.4945 22.2182 11.0422C22.9746 10.5899 23.9195 11.0134 23.7109 12.0866C23.5023 13.1598 22.8742 13.8827 22.373 14.7861ZM29.4891 27.5599C30.1299 26.9692 30.7584 26.5851 30.7584 26.5851C31.2546 29.7964 26.2235 33.6147 23.7068 30.586C22.8212 29.52 22.4946 27.8248 22.4461 25.9711C22.3956 24.0434 22.8851 17.7152 23.449 15.683C23.8449 14.2566 24.6903 13.4282 24.7802 11.9227C24.8956 9.99327 22.4028 9.33112 21.1075 10.9681C19.8124 12.605 21.2366 13.6454 21.282 15.4186C21.3636 18.5968 21.1178 21.3701 20.9264 24.5123C20.8162 26.3215 20.8061 28.0678 21.1733 29.0651C21.7179 30.5442 22.8379 31.7285 24.4307 32.2893C27.0862 33.224 30.5972 31.1259 31.4497 27.9132C32.3021 24.7003 31.1127 22.2633 31.1127 22.2633C31.1127 22.2633 31.318 24.1293 29.4891 27.5599Z" fill="white"/>
<path fill-rule="evenodd" clip-rule="evenodd" d="M29.9526 18.8719C31.4304 20.3881 32.1281 22.7358 32.1489 25.0226C32.0456 23.3894 31.5201 21.5977 30.524 20.2363C30.8025 22.7494 30.8343 23.8044 30.0245 25.6605C30.8015 21.7864 29.9526 18.8719 29.9526 18.8719Z" fill="white"/>
<path fill-rule="evenodd" clip-rule="evenodd" d="M29.5903 31.4039C26.7262 34.4658 21.7546 33.4974 20.6138 29.8097C20.1113 28.1856 20.0523 25.8005 20.7067 22.2679C20.6595 23.0071 20.6105 23.7476 20.5653 24.49C20.4845 25.8159 20.3747 27.944 20.8339 29.1914C21.4355 30.8251 22.6688 32.0543 24.3111 32.6324C25.8151 33.1618 27.4777 32.7827 28.8048 31.9667C29.0792 31.7979 29.3419 31.6096 29.5903 31.4039Z" fill="white"/>
<path fill-rule="evenodd" clip-rule="evenodd" d="M22.4242 13.9966C22.2678 13.6437 22.1058 13.2919 21.9357 12.9518C21.6786 12.4379 21.9066 11.6515 22.403 11.3547C22.6249 11.222 22.9371 11.1642 23.1634 11.319C23.3901 11.4738 23.4038 11.7705 23.3559 12.0171C23.2106 12.7646 22.8143 13.3737 22.4242 13.9966ZM24.628 13.8342C24.628 13.8342 25.9189 12.1716 25.1795 10.1896C24.44 8.20753 21.3261 8.45536 20.2787 10.237C19.2315 12.0185 20.5389 13.6582 20.8455 14.829C20.6786 14.0587 20.2884 13.3805 20.2146 12.5981C20.1474 11.8872 20.3883 11.2932 20.8244 10.7419C21.2829 10.1624 21.9305 9.77348 22.667 9.69247C23.3113 9.6216 23.9821 9.79963 24.4713 10.2365C24.9631 10.6759 25.1803 11.2909 25.1412 11.9445C25.1003 12.6305 24.9118 13.2153 24.628 13.8342Z" fill="white"/>
<path d="M0.84 65V64.776L1.974 64.216V56.544L0.84 55.984V55.76H7.728V58.168H7.504L6.622 56.53H3.444V59.862H5.628L6.342 58.686H6.566V61.752H6.342L5.628 60.604H3.444V64.216L4.732 64.776V65H0.84ZM16.5083 65.14C15.8363 65.14 15.211 65.028 14.6323 64.804C14.063 64.58 13.5683 64.2673 13.1483 63.866C12.7283 63.4553 12.397 62.9747 12.1543 62.424C11.921 61.8733 11.8043 61.2713 11.8043 60.618C11.8043 59.8993 11.935 59.2367 12.1963 58.63C12.467 58.0233 12.8356 57.496 13.3023 57.048C13.769 56.5907 14.3056 56.2407 14.9123 55.998C15.519 55.746 16.1676 55.62 16.8583 55.62C17.353 55.62 17.773 55.648 18.1183 55.704C18.4636 55.76 18.7716 55.8393 19.0423 55.942C19.3223 56.0447 19.593 56.1613 19.8543 56.292L19.9383 58.644H19.7143L18.7063 56.964C18.3423 56.7213 18.0296 56.5533 17.7683 56.46C17.507 56.3667 17.2036 56.32 16.8583 56.32C16.1676 56.32 15.5516 56.4787 15.0103 56.796C14.469 57.1133 14.0443 57.552 13.7363 58.112C13.4283 58.672 13.2743 59.3113 13.2743 60.03C13.2743 60.9353 13.4376 61.71 13.7643 62.354C14.091 62.998 14.525 63.4927 15.0663 63.838C15.617 64.174 16.233 64.342 16.9143 64.342C17.185 64.342 17.451 64.328 17.7123 64.3C17.983 64.2627 18.2536 64.1973 18.5243 64.104V61.71L17.2783 61.136V60.912H20.9743V61.136L19.9943 61.752V63.964C19.7143 64.2067 19.3783 64.4167 18.9863 64.594C18.5943 64.762 18.1836 64.8973 17.7543 65C17.325 65.0933 16.9096 65.14 16.5083 65.14ZM29.5081 65.14C28.8361 65.14 28.2107 65.0233 27.6321 64.79C27.0627 64.5473 26.5634 64.216 26.1341 63.796C25.7141 63.3667 25.3874 62.8627 25.1541 62.284C24.9207 61.7053 24.8041 61.0707 24.8041 60.38C24.8041 59.6893 24.9207 59.0547 25.1541 58.476C25.3874 57.8973 25.7141 57.398 26.1341 56.978C26.5634 56.5487 27.0627 56.2173 27.6321 55.984C28.2107 55.7413 28.8361 55.62 29.5081 55.62C30.1801 55.62 30.8007 55.7413 31.3701 55.984C31.9487 56.2173 32.4481 56.5487 32.8681 56.978C33.2974 57.398 33.6287 57.8973 33.8621 58.476C34.1047 59.0547 34.2261 59.6893 34.2261 60.38C34.2261 61.0707 34.1047 61.7053 33.8621 62.284C33.6287 62.8627 33.2974 63.3667 32.8681 63.796C32.4481 64.216 31.9487 64.5473 31.3701 64.79C30.8007 65.0233 30.1801 65.14 29.5081 65.14ZM29.7881 64.44C30.3574 64.44 30.8567 64.2907 31.2861 63.992C31.7154 63.6933 32.0514 63.2733 32.2941 62.732C32.5367 62.1907 32.6581 61.5513 32.6581 60.814C32.6581 59.9087 32.5087 59.12 32.2101 58.448C31.9114 57.7667 31.5054 57.2393 30.9921 56.866C30.4787 56.4927 29.9094 56.306 29.2841 56.306C28.7147 56.306 28.2107 56.4553 27.7721 56.754C27.3334 57.0433 26.9881 57.4587 26.7361 58C26.4934 58.5413 26.3721 59.1807 26.3721 59.918C26.3721 60.8233 26.5214 61.6167 26.8201 62.298C27.1281 62.9793 27.5387 63.5067 28.0521 63.88C28.5747 64.2533 29.1534 64.44 29.7881 64.44ZM40.9629 65.07L38.3589 56.502L37.2949 55.984V55.76H41.0609V55.984L39.8709 56.502L41.5789 62.41H41.6629L44.0849 55.69H44.6729L47.1369 62.41H47.2209L48.9149 56.516L47.7249 55.984V55.76H50.8329V55.984L49.8949 56.488L47.2629 65.07H46.6889L44.1689 58.364H44.0709L41.5229 65.07H40.9629Z" fill="white"/>
</svg>
