<svg width="64" height="64" viewBox="0 0 64 64" fill="none" xmlns="http://www.w3.org/2000/svg">
<rect width="64" height="64" rx="32" fill="#304722"/>
<path d="M44 33.5C44.8284 33.5 45.5 32.8284 45.5 32C45.5 31.1716 44.8284 30.5 44 30.5L44 33.5ZM18.9393 30.9393C18.3536 31.5251 18.3536 32.4749 18.9393 33.0607L28.4853 42.6066C29.0711 43.1924 30.0208 43.1924 30.6066 42.6066C31.1924 42.0208 31.1924 41.0711 30.6066 40.4853L22.1213 32L30.6066 23.5147C31.1924 22.9289 31.1924 21.9792 30.6066 21.3934C30.0208 20.8076 29.0711 20.8076 28.4853 21.3934L18.9393 30.9393ZM44 30.5L20 30.5L20 33.5L44 33.5L44 30.5Z" fill="#50713C"/>
</svg>
