<svg width="48" height="48" viewBox="0 0 48 48" fill="none" xmlns="http://www.w3.org/2000/svg">
<path d="M32 18V30C32 32.6522 30.9464 35.1957 29.0711 37.0711C27.1957 38.9464 24.6522 40 22 40C19.3478 40 16.8043 38.9464 14.9289 37.0711C13.0536 35.1957 12 32.6522 12 30V22L18 28" stroke="#50713C" stroke-width="3" stroke-linecap="round" stroke-linejoin="round"/>
<path d="M28 14C28 15.0609 28.4214 16.0783 29.1716 16.8284C29.9217 17.5786 30.9391 18 32 18C33.0609 18 34.0783 17.5786 34.8284 16.8284C35.5786 16.0783 36 15.0609 36 14C36 12.9391 35.5786 11.9217 34.8284 11.1716C34.0783 10.4214 33.0609 10 32 10C30.9391 10 29.9217 10.4214 29.1716 11.1716C28.4214 11.9217 28 12.9391 28 14Z" fill="#50713C" fill-opacity="0.2"/>
<path d="M32 10C33.0609 10 34.0783 10.4214 34.8284 11.1716C35.5786 11.9217 36 12.9391 36 14C36 15.0609 35.5786 16.0783 34.8284 16.8284C34.0783 17.5786 33.0609 18 32 18C30.9391 18 29.9217 17.5786 29.1716 16.8284C28.4214 16.0783 28 15.0609 28 14C28 12.9391 28.4214 11.9217 29.1716 11.1716C29.9217 10.4214 30.9391 10 32 10ZM32 10V6" stroke="#50713C" stroke-width="3" stroke-linecap="round" stroke-linejoin="round"/>
</svg>
