<svg width="48" height="48" viewBox="0 0 48 48" fill="none" xmlns="http://www.w3.org/2000/svg">
<path opacity="0.2" d="M41.5612 16.9387L36 22.5L25.5 12L31.0613 6.43875C31.3425 6.15766 31.7239 5.99976 32.1216 5.99976C32.5192 5.99976 32.9006 6.15766 33.1819 6.43875L41.5612 14.8125C41.7013 14.9519 41.8124 15.1175 41.8882 15.3C41.964 15.4824 42.0031 15.6781 42.0031 15.8756C42.0031 16.0732 41.964 16.2688 41.8882 16.4513C41.8124 16.6337 41.7013 16.7994 41.5612 16.9387Z" fill="#50713C"/>
<path d="M42.6225 13.7569L34.2431 5.37941C33.9646 5.10076 33.6338 4.87972 33.2698 4.72892C32.9058 4.57811 32.5156 4.50049 32.1216 4.50049C31.7276 4.50049 31.3374 4.57811 30.9734 4.72892C30.6093 4.87972 30.2786 5.10076 30 5.37941L6.87939 28.5C6.5996 28.7776 6.37778 29.108 6.22681 29.4721C6.07585 29.8361 5.99876 30.2265 6.00002 30.6207V39C6.00002 39.7957 6.31609 40.5587 6.87869 41.1214C7.4413 41.684 8.20437 42 9.00002 42H40.5C40.8978 42 41.2794 41.842 41.5607 41.5607C41.842 41.2794 42 40.8979 42 40.5C42 40.1022 41.842 39.7207 41.5607 39.4394C41.2794 39.1581 40.8978 39 40.5 39H21.6225L42.6225 18C42.9012 17.7214 43.1222 17.3907 43.273 17.0267C43.4238 16.6627 43.5014 16.2725 43.5014 15.8785C43.5014 15.4844 43.4238 15.0943 43.273 14.7303C43.1222 14.3662 42.9012 14.0355 42.6225 13.7569ZM14.8725 35.25L30.75 19.3707L33.8794 22.5L18 38.3794L14.8725 35.25ZM12.75 33.1294L9.62064 30L25.5 14.1207L28.6294 17.25L12.75 33.1294ZM9.00002 33.6207L14.3794 39H9.00002V33.6207ZM36 20.3794L27.6225 12L32.1225 7.50004L40.5 15.8794L36 20.3794Z" fill="#50713C"/>
</svg>
