<svg width="48" height="48" viewBox="0 0 48 48" fill="none" xmlns="http://www.w3.org/2000/svg">
<path opacity="0.2" d="M13.5 19.5H4.5V10.5L13.5 19.5Z" fill="#50713C"/>
<path d="M36.7275 11.265C33.3529 7.89867 28.7818 6.00697 24.0153 6.00415C19.2488 6.00134 14.6754 7.88765 11.2969 11.25L9.24565 13.125L5.56128 9.4312C5.35104 9.22072 5.08297 9.07751 4.79114 9.01977C4.49931 8.96203 4.1969 8.99237 3.92236 9.10693C3.64781 9.22149 3.41353 9.4151 3.2493 9.66315C3.08507 9.91119 2.9983 10.2025 3.00003 10.5V19.5C3.00003 19.8978 3.15806 20.2793 3.43937 20.5606C3.72067 20.8419 4.1022 21 4.50003 21H13.5C13.7969 21.0002 14.0871 20.9123 14.334 20.7475C14.5809 20.5827 14.7733 20.3484 14.887 20.0741C15.0006 19.7999 15.0303 19.4981 14.9723 19.207C14.9143 18.9159 14.7713 18.6485 14.5613 18.4387L11.3738 15.2512L13.35 13.4418C13.3672 13.4272 13.3835 13.4115 13.3988 13.395C15.484 11.3112 18.137 9.88812 21.0263 9.30341C23.9157 8.7187 26.9132 8.99831 29.6446 10.1073C32.3759 11.2163 34.7199 13.1055 36.3838 15.539C38.0477 17.9724 38.9576 20.8422 39 23.7898C39.0424 26.7374 38.2153 29.6321 36.622 32.1124C35.0288 34.5926 32.7401 36.5485 30.0417 37.7355C27.3434 38.9226 24.3551 39.2882 21.4502 38.7868C18.5452 38.2854 15.8524 36.9391 13.7081 34.9162C13.419 34.6427 13.033 34.4953 12.6351 34.5063C12.2373 34.5174 11.8601 34.6861 11.5866 34.9753C11.3131 35.2644 11.1657 35.6504 11.1767 36.0483C11.1878 36.4461 11.3565 36.8233 11.6456 37.0968C14.9809 40.2577 19.4049 42.0135 24 42H24.2475C27.7879 41.9529 31.2359 40.8627 34.1598 38.8658C37.0837 36.869 39.3537 34.0541 40.6858 30.7735C42.0179 27.4929 42.3529 23.8923 41.6488 20.4223C40.9447 16.9522 39.2329 13.7669 36.7275 11.265ZM6.00003 18V14.115L9.8794 18H6.00003Z" fill="#50713C"/>
</svg>
