<svg width="43" height="43" viewBox="0 0 43 43" fill="none" xmlns="http://www.w3.org/2000/svg">
<path d="M30.4998 10.2501C30.4998 10.6951 30.3679 11.1301 30.1206 11.5001C29.8734 11.8701 29.522 12.1585 29.1109 12.3288C28.6997 12.4991 28.2473 12.5436 27.8109 12.4568C27.3744 12.37 26.9735 12.1557 26.6588 11.8411C26.3442 11.5264 26.1299 11.1255 26.0431 10.689C25.9562 10.2526 26.0008 9.80016 26.1711 9.38903C26.3414 8.97789 26.6298 8.62649 26.9998 8.37926C27.3698 8.13202 27.8048 8.00006 28.2498 8.00006C28.8466 8.00006 29.4189 8.23712 29.8408 8.65907C30.2628 9.08103 30.4998 9.65333 30.4998 10.2501ZM36.4136 27.2694C31.3398 32.3319 23.3973 34.4601 12.7286 33.6351C13.0273 35.8651 13.4461 38.2132 13.9848 40.6794C14.0696 41.0681 13.9965 41.4744 13.7816 41.8092C13.5668 42.1439 13.2278 42.3796 12.8392 42.4644C12.7334 42.4882 12.6252 42.5002 12.5167 42.5001C12.1751 42.4994 11.8439 42.3822 11.5779 42.1677C11.312 41.9533 11.1272 41.6544 11.0542 41.3207C10.4405 38.5169 9.97858 35.8519 9.66858 33.3257C7.14358 33.0144 4.48046 32.5526 1.67921 31.9401C1.29232 31.8533 0.9555 31.6169 0.742398 31.2826C0.529297 30.9482 0.457246 30.5431 0.541998 30.1558C0.62675 29.7684 0.86141 29.4304 1.19468 29.2156C1.52794 29.0008 1.9327 28.9267 2.32046 29.0094C4.78421 29.5469 7.13046 29.9657 9.35921 30.2657C8.53608 19.5988 10.6717 11.6582 15.7342 6.58631C23.9373 -1.64119 36.9555 0.668815 39.4811 1.21631C40.0451 1.33922 40.562 1.62156 40.9701 2.02975C41.3783 2.43794 41.6607 2.95479 41.7836 3.51881C42.3311 6.04444 44.643 19.0626 36.4136 27.2694ZM33.6011 25.7901C29.4752 25.1668 25.6575 23.2379 22.708 20.2863C19.7584 17.3348 17.8322 13.5158 17.2117 9.38944C13.1673 13.9551 11.5623 21.0632 12.3911 30.6032C21.933 31.4376 29.0411 29.8326 33.6067 25.7901H33.6011ZM38.8511 4.15444C35.8154 3.52684 32.7037 3.35119 29.6167 3.63319C25.8217 4.00819 22.6042 5.10131 20.0073 6.90694C20.1105 11.1413 21.8381 15.1739 24.8325 18.1697C27.8268 21.1655 31.8586 22.8949 36.093 23.0001C37.8967 20.4032 38.9973 17.1876 39.3667 13.3907C39.6476 10.3033 39.4738 7.19139 38.8511 4.15444Z" fill="#50713C"/>
</svg>
